<?xml version="1.0" encoding="UTF-8"?>
<svg version="1.1" xmlns="http://www.w3.org/2000/svg" width="500" height="500">
<path d="M0 0 C165 0 330 0 500 0 C500 165 500 330 500 500 C335 500 170 500 0 500 C0 335 0 170 0 0 Z " fill="#FCFCFB" transform="translate(0,0)"/>
<path d="M0 0 C2.88034921 2.25040233 5.54683582 4.62236632 8.21484375 7.12109375 C8.75705566 7.62237793 9.29926758 8.12366211 9.85791016 8.64013672 C16.8006721 15.10599023 23.1467114 21.40998427 27.21484375 30.12109375 C27.55 30.81074219 27.88515625 31.50039062 28.23046875 32.2109375 C31.94072205 41.2673285 31.49149938 52.71758907 28.25390625 61.85546875 C23.9027011 71.34305894 16.53400114 78.85528299 9.21484375 86.12109375 C8.17666768 87.15843835 7.13892441 88.19621623 6.1015625 89.234375 C3.13932292 92.19661458 0.17708333 95.15885417 -2.78515625 98.12109375 C-6.1266594 96.72098228 -7.76518197 95.18932407 -9.84765625 92.24609375 C-10.33363281 91.56804687 -10.81960938 90.89 -11.3203125 90.19140625 C-11.80371094 89.50820312 -12.28710938 88.825 -12.78515625 88.12109375 C-13.78145385 86.78499163 -14.78039226 85.45084075 -15.78515625 84.12109375 C-14.29547304 80.62097989 -12.30508702 78.44494496 -9.57421875 75.8203125 C-8.74148438 75.00755859 -7.90875 74.19480469 -7.05078125 73.35742188 C-5.30026336 71.66775779 -3.5476802 69.98023056 -1.79296875 68.29492188 C4.75426952 61.89418817 9.89924201 56.4096329 10.32324219 46.86962891 C9.95926611 37.64070384 4.32641264 31.33107269 -2.03515625 25.24609375 C-2.76089844 24.51390625 -3.48664063 23.78171875 -4.234375 23.02734375 C-10.46159729 16.92222386 -16.26923508 12.54743543 -25.28515625 12.55859375 C-26.32671875 12.53667969 -27.36828125 12.51476562 -28.44140625 12.4921875 C-36.79636607 14.0636227 -42.72986743 20.60971409 -48.51953125 26.421875 C-49.31997864 27.21708054 -50.12042603 28.01228607 -50.94512939 28.83158875 C-52.62620168 30.50626924 -54.30345359 32.18479259 -55.97705078 33.86694336 C-58.52926627 36.42768409 -61.09961141 38.96918258 -63.671875 41.50976562 C-65.30972507 43.14600376 -66.9464815 44.7833375 -68.58203125 46.421875 C-69.34561951 47.17422928 -70.10920776 47.92658356 -70.89593506 48.70173645 C-75.95126971 53.82343118 -80.0477937 58.74917246 -81.28125 66.0625 C-80.91642367 82.38239794 -69.02867405 91.04201299 -58.03515625 101.93359375 C-57.11605469 102.84818359 -56.19695312 103.76277344 -55.25 104.70507812 C-53.54707543 106.39937717 -51.84311438 108.09263569 -50.13769531 109.78442383 C-49.36135742 110.5555249 -48.58501953 111.32662598 -47.78515625 112.12109375 C-46.86573242 112.98178467 -45.94630859 113.84247559 -44.99902344 114.72924805 C-42.78515625 117.12109375 -42.78515625 117.12109375 -42.59765625 120.12109375 C-44.14223642 124.02319101 -46.0360977 126.3185161 -49.78515625 128.12109375 C-53.34434395 128.96484108 -56.21662394 128.88528173 -59.78515625 128.12109375 C-61.609375 126.93408203 -61.609375 126.93408203 -63.34765625 125.31640625 C-64.03327637 124.6821875 -64.71889648 124.04796875 -65.42529297 123.39453125 C-66.20404785 122.64429688 -66.98280273 121.8940625 -67.78515625 121.12109375 C-68.70699707 120.23679687 -69.62883789 119.3525 -70.57861328 118.44140625 C-73.17913448 115.92769135 -75.75079833 113.38622274 -78.31298828 110.83349609 C-79.907349 109.24888384 -81.51209238 107.67529088 -83.1171875 106.1015625 C-94.39056378 94.94552837 -100.98310761 85.34813622 -101.22265625 69.18359375 C-101.11269882 52.47521914 -92.96716978 43.00522769 -81.6171875 31.58203125 C-80.30399788 30.25529892 -80.30399788 30.25529892 -78.96427917 28.90176392 C-77.11879388 27.04183727 -75.27054162 25.18465245 -73.41967773 23.33007812 C-70.61132258 20.50981802 -67.82219311 17.67142615 -65.03320312 14.83203125 C-63.22901899 13.01838214 -61.42371637 11.20584485 -59.6171875 9.39453125 C-58.79595901 8.55377045 -57.97473053 7.71300964 -57.12861633 6.84677124 C-41.56790554 -8.59581888 -18.81461767 -12.69261024 0 0 Z " fill="#0A70C5" transform="translate(277.78515625,98.87890625)"/>
<path d="M0 0 C4.66189698 2.82400196 8.41307685 6.093006 12.24609375 9.91015625 C12.82029556 10.47770126 13.39449738 11.04524628 13.98609924 11.62998962 C15.19460019 12.82841417 16.40044785 14.02951965 17.60375977 15.2331543 C19.41851484 17.04356033 21.24862842 18.83736463 23.08007812 20.63085938 C32.47639824 29.93316013 41.6725007 39.41655353 42.265625 53.33984375 C42.27086898 54.87239571 42.26551881 56.40501764 42.25 57.9375 C42.26160156 59.07735352 42.26160156 59.07735352 42.2734375 60.24023438 C42.22564973 74.23010404 35.65797632 84.28565417 26 94 C24.30091041 95.50584549 22.56899942 96.95499034 20.81152344 98.3918457 C18.94925342 100.04504956 17.38377501 101.78163507 15.7734375 103.6796875 C3.13905616 118.28939004 -10.07099071 133.2535137 -30.33203125 135.34375 C-44.23208977 135.7394812 -53.93214429 131.57348743 -64.046875 122.2265625 C-71.12176931 115.47930122 -78.08514278 108.0973825 -82 99 C-82 98.01 -82 97.02 -82 96 C-79.66534859 96.32547419 -77.33254606 96.65994773 -75 97 C-74.26942383 97.103125 -73.53884766 97.20625 -72.78613281 97.3125 C-61.36516486 99.012365 -54.57054385 100.8108098 -47 110 C-42.26939981 114.19632064 -37.23910028 114.46579704 -31.16015625 114.53125 C-22.6394391 113.09884267 -17.40070636 107.93726331 -11.6328125 101.953125 C-10.87201385 101.18192322 -10.11121521 100.41072144 -9.32736206 99.6161499 C-6.91678488 97.17015724 -4.5201234 94.71111936 -2.125 92.25 C0.29332851 89.77646947 2.71452634 87.30592273 5.14163208 84.84100342 C6.6474005 83.31067275 8.14779089 81.77502858 9.64230347 80.23370361 C10.31705719 79.54588806 10.99181091 78.85807251 11.68701172 78.14941406 C12.2802121 77.53970764 12.87341248 76.93000122 13.48458862 76.30181885 C15 75 15 75 17 75 C17.4021875 74.195625 17.4021875 74.195625 17.8125 73.375 C19 71 19 71 20.625 68.5 C22.62819295 63.40096339 23.00193404 58.39198712 22 53 C18.89258809 46.69118346 14.33635741 42.00574515 9.29296875 37.2109375 C7.80494928 35.760816 6.3173306 34.31028313 4.83007812 32.859375 C2.50043217 30.60444935 0.16623459 28.35463758 -2.17553711 26.11230469 C-4.44917495 23.92911855 -6.70391242 21.72776545 -8.95703125 19.5234375 C-9.66318069 18.85766693 -10.36933014 18.19189636 -11.09687805 17.50595093 C-15.87659008 12.80140558 -15.87659008 12.80140558 -16.51611328 8.6484375 C-15.76107956 4.77397873 -14.17509492 3.48084225 -11.1328125 1.140625 C-7.48730613 -0.80898647 -3.97831989 -1.03665188 0 0 Z " fill="#0B70C5" transform="translate(227,161)"/>
<path d="M0 0 C4.62 0 9.24 0 14 0 C14.61875 3.2484375 14.61875 3.2484375 15.25 6.5625 C16.53558938 13.12482654 18.17606036 19.54309405 19.94921875 25.9921875 C21.9020196 33.26125357 23.41584141 40.64377421 25 48 C27.4888763 40.82840508 29.50617407 33.5893575 31.4375 26.25 C33.78128435 17.43340777 36.21520341 8.68856538 39 0 C43.62 0 48.24 0 53 0 C58.05499251 12.89023091 61.63505351 26.23011245 64.47265625 39.76953125 C65.20754385 42.8778336 66.10853365 45.93350371 67 49 C69.03100167 40.5900756 71.03683735 32.21336604 72.50390625 23.68359375 C73.97636697 15.71839286 75.99976601 7.8470718 78 0 C82.62 0 87.24 0 92 0 C90.90832365 9.64314112 89.07789398 18.98372985 86.67260742 28.38818359 C85.43855902 33.2153087 84.27250091 38.05483138 83.13671875 42.90600586 C81.00157901 52.02374025 78.66375253 61.02216739 76 70 C70.72 70 65.44 70 60 70 C59.60167969 68.66066406 59.20335937 67.32132812 58.79296875 65.94140625 C58.25788762 64.14841508 57.72272712 62.35544759 57.1875 60.5625 C56.92646484 59.68400391 56.66542969 58.80550781 56.39648438 57.90039062 C55.14655463 53.7185269 53.86323906 49.56297556 52.4375 45.4375 C50.88523268 40.83779293 49.81626695 36.1829352 48.8125 31.4375 C48.63525391 30.61958984 48.45800781 29.80167969 48.27539062 28.95898438 C47.84580767 26.97361449 47.42225196 24.98694197 47 23 C46.34 23 45.68 23 45 23 C44.76925781 24.11375 44.53851563 25.2275 44.30078125 26.375 C42.50600067 34.84158077 40.47747011 43.115525 37.79516602 51.34594727 C36.13444033 56.45999976 34.79035087 61.60330992 33.578125 66.83984375 C33 69 33 69 32 70 C29.30345146 70.07319621 26.63308542 70.09242537 23.9375 70.0625 C23.17888672 70.05798828 22.42027344 70.05347656 21.63867188 70.04882812 C19.75908129 70.0370068 17.87953101 70.01907078 16 70 C15.38932144 67.96027163 14.78694654 65.91805751 14.1875 63.875 C13.85105469 62.73804688 13.51460937 61.60109375 13.16796875 60.4296875 C12.18522906 56.87965209 11.41104998 53.30426098 10.65625 49.69921875 C9.45873755 44.00790523 8.13776943 38.35973589 6.73828125 32.71484375 C6.54102951 31.91713562 6.34377777 31.11942749 6.14054871 30.29754639 C5.32445339 27.00278881 4.50584007 23.70869465 3.68041992 20.41625977 C3.06954419 17.97537046 2.46590024 15.53278258 1.86328125 13.08984375 C1.6758284 12.35023911 1.48837555 11.61063446 1.29524231 10.84861755 C0.35963788 7.03383493 0 3.98491771 0 0 Z " fill="#164571" transform="translate(69,311)"/>
<path d="M0 0 C7.01238528 -0.13789833 14.02005289 -0.25729436 21.03271484 -0.32958984 C23.41699172 -0.35972954 25.80115802 -0.40064931 28.18505859 -0.45263672 C31.61583757 -0.52557116 35.0451487 -0.55948577 38.4765625 -0.5859375 C39.53928375 -0.61690521 40.602005 -0.64787292 41.69692993 -0.67977905 C46.28550662 -0.68185732 50.01449206 -0.66348461 53.68359375 2.31640625 C57.30750889 6.77848683 56.74549446 12.04790947 56.5859375 17.5234375 C56.57744781 18.62475006 56.56895813 19.72606262 56.56021118 20.86074829 C56.52671577 24.36650823 56.45143734 27.86993932 56.375 31.375 C56.34489569 33.75647712 56.31752072 36.13799042 56.29296875 38.51953125 C56.22693714 44.34714416 56.12662556 50.17340569 56 56 C54.7617749 55.84837402 53.5235498 55.69674805 52.24780273 55.54052734 C51.20305031 55.41259293 51.20305031 55.41259293 50.13719177 55.28207397 C46.75899594 54.83620798 43.4118977 54.2484474 40.0625 53.625 C39.35794678 53.49416016 38.65339355 53.36332031 37.92749023 53.22851562 C34.3683261 52.5415801 30.96103042 51.7611734 27.5625 50.5 C22.56317237 48.64947369 17.35961446 47.91924653 12.11352539 47.08984375 C11.41219482 46.97640625 10.71086426 46.86296875 9.98828125 46.74609375 C9.05302612 46.60192017 9.05302612 46.60192017 8.09887695 46.45483398 C5.34195314 45.85739894 2.67615429 44.89205143 0 44 C0 29.48 0 14.96 0 0 Z " fill="#0A70C6" transform="translate(131,202)"/>
<path d="M0 0 C-0.61926144 3.38489506 -1.49735012 6.54501124 -2.5625 9.8125 C-6.76854526 25.52207904 -3.08272441 38.83455117 4 53 C-11.18 53 -26.36 53 -42 53 C-42 38.48 -42 23.96 -42 9 C-35.626875 7.515 -29.25375 6.03 -22.6875 4.5 C-19.67435669 3.79520508 -19.67435669 3.79520508 -16.6003418 3.07617188 C-15.0083614 2.70676991 -13.41632422 2.33761254 -11.82421875 1.96875 C-10.99748657 1.77442383 -10.17075439 1.58009766 -9.31896973 1.37988281 C-8.13180359 1.1057959 -8.13180359 1.1057959 -6.9206543 0.82617188 C-6.23448532 0.66628784 -5.54831635 0.50640381 -4.84135437 0.3416748 C-3 0 -3 0 0 0 Z " fill="#0D71C6" transform="translate(173,144)"/>
<path d="M0 0 C4.29 0 8.58 0 13 0 C13.33 13.53 13.66 27.06 14 41 C20.63306048 32.56364231 20.63306048 32.56364231 26.625 23.6875 C28.92996299 20.93510302 30.23478195 20.97521226 33.921875 20.5859375 C37.96800198 20.4948166 41.96567618 20.69814442 46 21 C42.57763667 25.82640982 38.99999012 30.14602848 34.74609375 34.2578125 C31.97833268 37.01938171 29.50807902 40.00253971 27 43 C28.41987421 46.04898397 30.10551761 48.64370267 32.1171875 51.3359375 C32.72433594 52.15320313 33.33148438 52.97046875 33.95703125 53.8125 C34.58996094 54.658125 35.22289062 55.50375 35.875 56.375 C39.70628157 61.50970726 43.51437847 66.62268437 47 72 C32.81432746 74.07354378 32.81432746 74.07354378 28.31005859 70.75488281 C24.83844769 66.95813615 22.52076341 62.45319784 20 58 C18.02 55.36 16.04 52.72 14 50 C13.67 57.26 13.34 64.52 13 72 C8.71 72 4.42 72 0 72 C0 48.24 0 24.48 0 0 Z " fill="#154370" transform="translate(375,309)"/>
<path d="M0 0 C3.09824681 2.79597883 5.68730734 5.56211469 7.5625 9.3125 C7.64961775 12.37492321 7.6779846 15.41436465 7.66015625 18.4765625 C7.6587413 19.38377045 7.65732635 20.29097839 7.65586853 21.22567749 C7.65026096 24.12965155 7.63770718 27.03354915 7.625 29.9375 C7.61998598 31.90364472 7.6154229 33.86979065 7.61132812 35.8359375 C7.60028906 40.6614879 7.58301935 45.48698097 7.5625 50.3125 C3.2725 50.3125 -1.0175 50.3125 -5.4375 50.3125 C-5.45208252 49.23766357 -5.46666504 48.16282715 -5.48168945 47.05541992 C-5.5396489 43.06875283 -5.61688129 39.08265199 -5.69995117 35.09643555 C-5.73321172 33.37094307 -5.76124019 31.64534151 -5.78393555 29.91967773 C-5.81746153 27.43946834 -5.86977406 24.9602597 -5.92578125 22.48046875 C-5.93217117 21.70849655 -5.9385611 20.93652435 -5.94514465 20.14115906 C-6.02469035 15.98896872 -6.02469035 15.98896872 -7.84448242 12.36450195 C-11.53059207 9.93025728 -15.11791504 9.67097748 -19.4375 10.3125 C-21.86869623 12.18265094 -23.07819173 13.59388345 -24.4375 16.3125 C-24.59394172 18.86356029 -24.69571389 21.39168663 -24.75390625 23.9453125 C-24.77468735 24.69714813 -24.79546844 25.44898376 -24.81687927 26.22360229 C-24.88232705 28.62814085 -24.94123738 31.03278967 -25 33.4375 C-25.04318977 35.06641771 -25.08680421 36.69532422 -25.13085938 38.32421875 C-25.23800351 42.32019915 -25.33928433 46.31629059 -25.4375 50.3125 C-30.0575 50.3125 -34.6775 50.3125 -39.4375 50.3125 C-39.4375 33.4825 -39.4375 16.6525 -39.4375 -0.6875 C-34.8175 -0.6875 -30.1975 -0.6875 -25.4375 -0.6875 C-25.1075 0.9625 -24.7775 2.6125 -24.4375 4.3125 C-23.715625 3.69375 -22.99375 3.075 -22.25 2.4375 C-15.66400037 -2.53858861 -7.49174482 -3.67776564 0 0 Z " fill="#1A4773" transform="translate(229.4375,330.6875)"/>
<path d="M0 0 C4.91201511 3.10004536 6.97940576 7.12932117 8.625 12.625 C9.42242304 19.12672921 9.09787958 25.71740692 8.9375 32.25 C8.91237794 34.03512491 8.88957169 35.82028399 8.86914062 37.60546875 C8.8144722 41.94616718 8.72841948 46.28520061 8.625 50.625 C4.335 50.625 0.045 50.625 -4.375 50.625 C-4.3843457 49.62122314 -4.39369141 48.61744629 -4.40332031 47.58325195 C-4.44330231 43.8461529 -4.50908256 40.10987002 -4.58251953 36.37329102 C-4.61068186 34.75848911 -4.63192 33.14355057 -4.64599609 31.52856445 C-4.66749258 29.20192763 -4.71417211 26.87692523 -4.765625 24.55078125 C-4.76685364 23.83287918 -4.76808228 23.11497711 -4.76934814 22.37532043 C-4.90923408 17.54900564 -5.90245993 14.98916118 -9.375 11.625 C-11.76928888 10.84195008 -11.76928888 10.84195008 -14.3125 11 C-15.14652344 10.98710937 -15.98054688 10.97421875 -16.83984375 10.9609375 C-20.55064878 11.93295114 -21.97867632 13.65804132 -24.375 16.625 C-24.88222152 19.46232319 -25.09754511 21.71873781 -25.08203125 24.55078125 C-25.09715256 25.29837204 -25.11227386 26.04596283 -25.12785339 26.81620789 C-25.17064081 29.19028087 -25.1795588 31.56308031 -25.1875 33.9375 C-25.21065158 35.55276802 -25.23601831 37.16800591 -25.26367188 38.78320312 C-25.32643457 42.73058086 -25.35883984 46.67716754 -25.375 50.625 C-29.665 50.625 -33.955 50.625 -38.375 50.625 C-38.375 33.795 -38.375 16.965 -38.375 -0.375 C-34.085 -0.375 -29.795 -0.375 -25.375 -0.375 C-25.045 1.275 -24.715 2.925 -24.375 4.625 C-23.6325 4.00625 -22.89 3.3875 -22.125 2.75 C-15.52543688 -2.34966241 -7.85089564 -3.16423931 0 0 Z " fill="#164471" transform="translate(358.375,330.375)"/>
<path d="M0 0 C0 13.86 0 27.72 0 42 C-12.21 42 -24.42 42 -37 42 C-37.020625 36.410625 -37.04125 30.82125 -37.0625 25.0625 C-37.071604 23.29656494 -37.08070801 21.53062988 -37.09008789 19.71118164 C-37.09300714 18.31917395 -37.09555567 16.92716541 -37.09765625 15.53515625 C-37.10277222 14.80615112 -37.10788818 14.077146 -37.11315918 13.3260498 C-37.11347011 11.55029924 -37.06228515 9.77465792 -37 8 C-35.52140998 6.52140998 -34.02794055 6.52317128 -31.984375 6.1328125 C-31.15091553 5.97071289 -30.31745605 5.80861328 -29.45874023 5.64160156 C-28.56485596 5.47112305 -27.67097168 5.30064453 -26.75 5.125 C-19.60163007 3.73548181 -12.50819392 2.24517615 -5.43359375 0.515625 C-3 0 -3 0 0 0 Z " fill="#0A70C5" transform="translate(125,155)"/>
<path d="M0 0 C12.21 0 24.42 0 37 0 C37 13.86 37 27.72 37 42 C30.07 40.515 30.07 40.515 23 39 C18.90148925 38.22048612 14.79831877 37.47961899 10.69140625 36.74609375 C7.08485399 36.01715038 3.53790873 35.01083107 0 34 C0 22.78 0 11.56 0 0 Z " fill="#076FC5" transform="translate(88,203)"/>
<path d="M0 0 C4.95 0 9.9 0 15 0 C15 19.14 15 38.28 15 58 C24.24 58 33.48 58 43 58 C43 61.96 43 65.92 43 70 C28.81 70 14.62 70 0 70 C0 46.9 0 23.8 0 0 Z " fill="#184672" transform="translate(248,311)"/>
<path d="M0 0 C4.29 0 8.58 0 13 0 C13 16.83 13 33.66 13 51 C8.71 51 4.42 51 0 51 C0 34.17 0 17.34 0 0 Z " fill="#194672" transform="translate(298,330)"/>
<path d="M0 0 C4.29 0 8.58 0 13 0 C13 16.83 13 33.66 13 51 C8.71 51 4.42 51 0 51 C0 34.17 0 17.34 0 0 Z " fill="#194672" transform="translate(167,330)"/>
<path d="M0 0 C2.375 1 2.375 1 4 3 C4.5659239 7.45665069 4.82483134 9.73102871 2.375 13.5 C-0.72140596 15.45562482 -2.39853135 15.60024477 -6 15 C-8.375 13.5 -8.375 13.5 -10 11 C-10.58428517 8.0368395 -10.39344818 6.09840439 -10 3 C-7.19663749 -0.45029232 -4.26211439 -0.5327643 0 0 Z " fill="#194571" transform="translate(177,309)"/>
<path d="M0 0 C0.99 0.66 1.98 1.32 3 2 C3.76502732 8.77595628 3.76502732 8.77595628 1.4375 12.5 C-1.93424177 14.57491801 -4.11590535 14.56495922 -8 14 C-10.29926216 12.21992607 -10.85462377 10.90314981 -11.3125 8.05859375 C-11.50525251 4.78782466 -11.44529545 2.58778999 -9.4375 -0.0625 C-5.97234618 -1.39525147 -3.56957573 -0.8437179 0 0 Z " fill="#1A4673" transform="translate(308,310)"/>
<path d="M0 0 C0 4.31618166 -2.13270348 5.92789659 -5 9 C-5.66 9 -6.32 9 -7 9 C-5.44499019 5.18315774 -2.96404505 2.80804268 0 0 Z " fill="#2071C5" transform="translate(282,161)"/>
</svg>
